<svg width="19" height="21" viewBox="0 0 19 21" fill="none" xmlns="http://www.w3.org/2000/svg">
<path d="M14.3039 16.7023L12.5022 20.8027L11.8416 18.7736C10.983 19.0325 10.0926 19.1646 9.18095 19.1646C4.1189 19.1646 0 15.0457 0 9.98369C0 4.92164 4.1189 0.802734 9.18095 0.802734V2.65208C5.13882 2.65208 1.84935 5.94126 1.84935 9.98369C1.84935 14.0261 5.13882 17.3153 9.18095 17.3153C9.89697 17.3153 10.5971 17.2149 11.2707 17.0114L10.6603 15.1329L14.3039 16.7023ZM11.3362 1.02986C11.1377 0.981666 10.9371 0.942128 10.74 0.912114L10.4623 2.74068C10.6066 2.76262 10.7538 2.79177 10.9001 2.82698L11.3362 1.02986ZM17.0439 14.9661L15.4046 14.1101C15.5541 13.8241 15.695 13.5115 15.8228 13.1817L17.5469 13.8515C17.3939 14.2446 17.2248 14.6195 17.0439 14.9661ZM17.9304 12.7072L16.1518 12.2007C16.2482 11.8622 16.3276 11.5242 16.387 11.1967L18.2064 11.5289C18.1359 11.9147 18.0433 12.3112 17.9304 12.7072ZM18.3544 10.2945L16.5071 10.2059C16.5108 10.1294 16.5126 10.055 16.5126 9.98311C16.5126 9.74213 16.4967 9.49509 16.4652 9.24891L18.2996 9.01514C18.3408 9.33866 18.3616 9.66421 18.3616 9.98311C18.3619 10.0838 18.3596 10.1877 18.3544 10.2945ZM16.2672 8.28816C16.1784 7.97445 16.0649 7.65872 15.9304 7.34992L17.626 6.61168C17.7931 6.99581 17.9345 7.38975 18.0462 7.78253L16.2672 8.28816ZM15.4716 6.4541C15.3019 6.16637 15.1117 5.88441 14.9065 5.61572L16.3772 4.49422C16.626 4.82063 16.8571 5.16348 17.0641 5.51356L15.4716 6.4541ZM14.247 4.84776C14.0113 4.60389 13.7613 4.37445 13.5039 4.16608L14.669 2.72972C14.9838 2.98513 15.2889 3.26507 15.576 3.56204L14.247 4.84776ZM12.6898 3.5883C12.4035 3.41255 12.1094 3.25959 11.8159 3.13405L12.544 1.4339C12.9201 1.59494 13.2947 1.78946 13.6574 2.01197L12.6898 3.5883ZM15.9605 16.5326L14.6208 15.2576C14.7102 15.1638 14.8014 15.055 14.8921 14.9349L16.3694 16.0472C16.2364 16.2241 16.0987 16.3874 15.9605 16.5326ZM6.05945 12.345C6.20317 12.345 6.31515 12.3196 6.39567 12.2688C6.4759 12.218 6.51602 12.1231 6.51602 11.9834C6.51602 11.8437 6.4759 11.7488 6.39567 11.698C6.31515 11.6475 6.20317 11.6218 6.05945 11.6218H4.81039C4.8482 11.4867 4.91169 11.3514 5.00058 11.216C5.08947 11.0809 5.22049 10.9265 5.39365 10.7531L5.92006 10.227C6.11025 10.0365 6.2505 9.83794 6.3417 9.63073C6.43261 9.4238 6.47792 9.21457 6.47792 9.00302C6.47792 8.59292 6.36595 8.28643 6.14199 8.08383C5.91775 7.88066 5.59452 7.77936 5.17201 7.77936C4.98586 7.77936 4.81876 7.80793 4.671 7.86507C4.52294 7.92221 4.39827 8.00129 4.29697 8.10288C4.19567 8.20418 4.11717 8.32568 4.06234 8.46738C4.00722 8.60908 3.9798 8.76435 3.9798 8.93347C3.9798 8.9883 3.98499 9.04343 3.99567 9.09826C4.00606 9.1531 4.02511 9.20302 4.05281 9.24747C4.08023 9.29191 4.11948 9.32885 4.16999 9.35829C4.22078 9.38801 4.28629 9.40273 4.36652 9.40273C4.46378 9.40273 4.55036 9.37416 4.62655 9.31702C4.70274 9.25988 4.74459 9.16781 4.75325 9.04112C4.77027 8.85093 4.80952 8.6997 4.87071 8.58773C4.93218 8.47575 5.043 8.41947 5.20375 8.41947C5.34719 8.41947 5.45397 8.47142 5.52381 8.57503C5.59336 8.67835 5.62828 8.81716 5.62828 8.99004C5.62828 9.0746 5.61963 9.15483 5.60289 9.23102C5.58586 9.30721 5.55758 9.38311 5.51717 9.4593C5.47706 9.53549 5.42107 9.61774 5.34921 9.70634C5.27735 9.79523 5.18644 9.8948 5.07648 10.0045L4.77835 10.3026C4.60491 10.476 4.4632 10.646 4.35354 10.8128C4.24358 10.9796 4.157 11.1361 4.09351 11.2821C4.0303 11.4278 3.98701 11.5609 3.96364 11.6815C3.94026 11.8019 3.92843 11.9023 3.92843 11.9825C3.92843 12.1095 3.95902 12.2013 4.02049 12.2584C4.08167 12.3156 4.17576 12.3441 4.30245 12.3441L6.05945 12.345ZM8.36104 11.9646C8.36104 12.1254 8.39596 12.2429 8.46551 12.3164C8.53535 12.3906 8.62944 12.4273 8.74776 12.4273C8.86609 12.4273 8.96017 12.3903 9.03001 12.3164C9.09957 12.2426 9.13449 12.1254 9.13449 11.9646V11.4322H9.28023C9.35642 11.4322 9.43348 11.4079 9.51169 11.3592C9.5899 11.3107 9.62915 11.2229 9.62915 11.0962C9.62915 10.9693 9.5899 10.8815 9.51169 10.833C9.43348 10.7843 9.35642 10.76 9.28023 10.76H9.13478V8.14126C9.13478 8.0313 9.10188 7.93751 9.03636 7.85901C8.97085 7.78109 8.86003 7.74184 8.70361 7.74184C8.55989 7.74184 8.4531 7.76089 8.38355 7.79898C8.314 7.83679 8.24733 7.92164 8.18384 8.05266L6.94719 10.6333C6.86263 10.8151 6.82049 10.9655 6.82049 11.0835C6.82049 11.2146 6.86061 11.3058 6.94084 11.3563C7.02107 11.4071 7.13507 11.4325 7.28312 11.4325H8.36104V11.9646ZM8.36104 10.76H7.50505L8.34834 8.9277H8.36104V10.76ZM9.80693 12.0027C9.78124 12.0662 9.76883 12.1404 9.76883 12.2247C9.76883 12.2965 9.79942 12.3525 9.8609 12.3926C9.92208 12.4327 9.99279 12.453 10.0733 12.453C10.1576 12.453 10.2306 12.4252 10.2921 12.3704C10.3532 12.3156 10.3986 12.2501 10.4283 12.1739L11.8802 8.12221C11.9056 8.05901 11.9183 7.98484 11.9183 7.90028C11.9183 7.82842 11.8874 7.77243 11.8263 7.73232C11.7648 7.6922 11.6941 7.672 11.6139 7.672C11.5293 7.672 11.4563 7.6997 11.3951 7.75454C11.3336 7.80937 11.2883 7.87488 11.2589 7.95107L9.80693 12.0027ZM13.8141 8.62322C13.7128 8.79667 13.6144 8.98686 13.5192 9.19408C13.4242 9.40129 13.3342 9.61457 13.2499 9.83448C13.1654 10.0544 13.088 10.272 13.0185 10.4876C12.9486 10.7032 12.8874 10.9061 12.8346 11.0965C12.7818 11.2867 12.7414 11.4602 12.7143 11.6163C12.6866 11.7727 12.673 11.8974 12.673 11.9903C12.673 12.113 12.7027 12.2163 12.7619 12.3009C12.8214 12.3854 12.9206 12.4276 13.06 12.4276C13.1997 12.4276 13.3085 12.3886 13.3867 12.3104C13.4649 12.2322 13.5102 12.1254 13.5229 11.9903C13.5486 11.7366 13.5928 11.4631 13.6563 11.169C13.7195 10.8755 13.7945 10.5837 13.8814 10.2939C13.9683 10.0042 14.062 9.72741 14.1636 9.46305C14.2649 9.19898 14.3665 8.96752 14.4678 8.76868C14.5273 8.65468 14.5737 8.56377 14.6075 8.49595C14.6413 8.42842 14.6655 8.3733 14.6805 8.33116C14.6952 8.28903 14.7048 8.25728 14.7088 8.23621C14.7128 8.21514 14.7152 8.1961 14.7152 8.17907C14.7152 8.04804 14.6802 7.96233 14.6104 7.92221C14.5408 7.8821 14.4404 7.86219 14.3094 7.86219H12.3628C12.2909 7.86219 12.2297 7.87488 12.1789 7.89999C12.1284 7.92568 12.0872 7.95829 12.0554 7.9984C12.0237 8.03852 12.0006 8.08094 11.9859 8.12539C11.9709 8.16983 11.9636 8.21081 11.9636 8.24891C11.9636 8.28268 11.9709 8.32193 11.9859 8.36637C12.0006 8.41081 12.0237 8.4518 12.0554 8.48989C12.0872 8.5277 12.1284 8.55944 12.1789 8.58484C12.2297 8.61053 12.2909 8.62294 12.3628 8.62294L13.8141 8.62322Z" fill="#212325"/>
</svg>
