<svg width="20" height="21" viewBox="0 0 20 21" fill="none" xmlns="http://www.w3.org/2000/svg">
<path d="M0.553445 1.05343C-0.184482 1.79136 -0.184482 2.98775 0.553445 3.72568L7.32776 10.5L0.553445 17.2744C-0.184482 18.0123 -0.184482 19.2087 0.553445 19.9466C1.29135 20.6845 2.48776 20.6845 3.22567 19.9466L9.99996 13.1722L16.7744 19.9466C17.5123 20.6845 18.7087 20.6845 19.4466 19.9466C20.1845 19.2087 20.1845 18.0123 19.4466 17.2744L12.6722 10.5L19.4466 3.7257C20.1845 2.98779 20.1845 1.79138 19.4466 1.05347C18.7085 0.315542 17.5123 0.315542 16.7744 1.05347L9.99996 7.82775L3.22567 1.05343C2.48776 0.315523 1.29135 0.315523 0.553445 1.05343Z" fill="white"/>
</svg>
