<svg width="27" height="22" viewBox="0 0 27 22" fill="none" xmlns="http://www.w3.org/2000/svg">
<path d="M13.5 0.875C6.87271 0.875 0 2.59626 0 6.14002V15.86C0 19.4038 6.87271 21.125 13.5 21.125C20.1273 21.125 27 19.4037 27 15.86V6.13997C27 2.59621 20.1273 0.875 13.5 0.875ZM24.5455 15.86C24.5455 17.0547 19.2273 18.695 13.5 18.695C7.77268 18.695 2.45452 17.0547 2.45452 15.86V14.1854C5.04383 15.58 9.32038 16.265 13.5 16.265C17.6796 16.265 21.9562 15.58 24.5455 14.1855V15.86ZM24.5455 11C24.5455 12.1947 19.2273 13.835 13.5 13.835C7.77268 13.835 2.45452 12.1947 2.45452 11V9.32549C5.04383 10.72 9.32038 11.405 13.5 11.405C17.6796 11.405 21.9562 10.72 24.5455 9.32549V11ZM13.5 8.97497C7.77273 8.97497 2.45452 7.33473 2.45452 6.13997C2.45452 4.94521 7.77268 3.30498 13.5 3.30498C19.2273 3.30498 24.5455 4.94521 24.5455 6.13997C24.5455 7.33473 19.2273 8.97497 13.5 8.97497Z" fill="white"/>
</svg>
