<svg width="40" height="30" viewBox="0 0 40 30" fill="none" xmlns="http://www.w3.org/2000/svg">
<circle cx="20" cy="20" r="20" fill="#CA174D"/>
<path d="M22.4133 29.1632C22.4125 29.3651 22.3319 29.5585 22.1891 29.7013C22.0463 29.8441 21.8529 29.9246 21.651 29.9255H9.7623C9.56039 29.9246 9.36698 29.8441 9.22421 29.7013C9.08143 29.5585 9.00084 29.3651 9 29.1632V27.7782C9.00084 27.5763 9.08143 27.3829 9.22421 27.2401C9.36698 27.0973 9.56039 27.0168 9.7623 27.0159H21.651C21.853 27.0163 22.0467 27.0968 22.1896 27.2397C22.3324 27.3825 22.4129 27.5762 22.4133 27.7782V29.1632ZM17.9727 25.0115C17.8558 25.0115 17.74 24.9885 17.632 24.9436C17.524 24.8987 17.426 24.8328 17.3436 24.7499L12.2129 19.6208C12.0461 19.4539 11.9523 19.2276 11.9523 18.9917C11.9523 18.7557 12.0461 18.5294 12.2129 18.3626C12.3797 18.1957 12.606 18.102 12.842 18.102C13.078 18.102 13.3043 18.1957 13.4711 18.3626L18.6002 23.4949C18.7247 23.6192 18.8095 23.7777 18.8439 23.9503C18.8783 24.1229 18.8607 24.3018 18.7933 24.4643C18.7259 24.6269 18.6118 24.7658 18.4655 24.8635C18.3191 24.9612 18.1471 25.0132 17.9711 25.0131L17.9727 25.0115ZM29.7362 26.6035L22.6043 19.4699L24.3455 17.7303L19.2534 12.6381L14.487 17.4045L19.5791 22.4951L21.3477 20.7281L28.4812 27.8617C28.5638 27.9443 28.6619 28.0098 28.7699 28.0545C28.8778 28.0992 28.9935 28.1222 29.1103 28.1222C29.2272 28.1222 29.3428 28.0992 29.4508 28.0545C29.5587 28.0098 29.6568 27.9443 29.7394 27.8617C29.822 27.779 29.8876 27.681 29.9323 27.573C29.977 27.4651 30 27.3494 30 27.2326C30 27.1157 29.977 27 29.9323 26.8921C29.8876 26.7842 29.822 26.6861 29.7394 26.6035H29.7362ZM25.9969 16.9856C25.8804 16.9857 25.7649 16.9628 25.6573 16.9182C25.5496 16.8735 25.4518 16.8081 25.3694 16.7256L20.2371 11.595C20.1545 11.5123 20.089 11.4143 20.0443 11.3063C19.9996 11.1984 19.9765 11.0827 19.9765 10.9659C19.9765 10.849 19.9996 10.7333 20.0443 10.6254C20.089 10.5174 20.1545 10.4194 20.2371 10.3368C20.3197 10.2541 20.4178 10.1886 20.5258 10.1439C20.6337 10.0992 20.7494 10.0762 20.8662 10.0762C20.9831 10.0762 21.0988 10.0992 21.2067 10.1439C21.3146 10.1886 21.4127 10.2541 21.4953 10.3368L26.6244 15.4674C26.7488 15.5917 26.8336 15.75 26.868 15.9225C26.9025 16.0949 26.885 16.2737 26.8178 16.4362C26.7507 16.5987 26.6368 16.7376 26.4907 16.8354C26.3446 16.9332 26.1727 16.9855 25.9969 16.9856Z" fill="white"/>
</svg>
