<svg width="33" height="42" viewBox="0 0 33 42" fill="none" xmlns="http://www.w3.org/2000/svg">
<path fill-rule="evenodd" clip-rule="evenodd" d="M11.537 1.37095C11.8808 1.02714 12.3471 0.833984 12.8333 0.833984H27.5C30.5377 0.833984 33 3.29643 33 6.33398V35.6673C33 38.705 30.5377 41.1673 27.5 41.1673H5.5C2.46244 41.1673 0 38.705 0 35.6673V13.6673C0 13.1811 0.19316 12.7148 0.536965 12.3709L11.537 1.37095ZM27.5 4.50065H14.6667V13.6673C14.6667 14.6798 13.8459 15.5007 12.8333 15.5007H3.66667V35.6673C3.66667 36.6799 4.48749 37.5006 5.5 37.5006H27.5C28.5126 37.5006 29.3333 36.6799 29.3333 35.6673V6.33398C29.3333 5.32147 28.5126 4.50065 27.5 4.50065ZM6.25938 11.834H11V7.09337L6.25938 11.834ZM7.33333 22.834C7.33333 21.8214 8.15415 21.0007 9.16667 21.0007H23.8333C24.8459 21.0007 25.6667 21.8214 25.6667 22.834C25.6667 23.8465 24.8459 24.6673 23.8333 24.6673H9.16667C8.15415 24.6673 7.33333 23.8465 7.33333 22.834ZM7.33333 30.1673C7.33333 29.1548 8.15415 28.334 9.16667 28.334H23.8333C24.8459 28.334 25.6667 29.1548 25.6667 30.1673C25.6667 31.1799 24.8459 32.0007 23.8333 32.0007H9.16667C8.15415 32.0007 7.33333 31.1799 7.33333 30.1673Z" fill="#212325"/>
</svg>
