<svg width="20" height="20" viewBox="0 0 20 20" fill="none" xmlns="http://www.w3.org/2000/svg">
<g clip-path="url(#clip0_3778_16357)">
<path d="M7.5 13.334C8.20865 13.8592 9.0705 14.1673 10 14.1673C10.9295 14.1673 11.7913 13.8592 12.5 13.334" stroke="white" stroke-width="1.5" stroke-linecap="round"/>
<path d="M12.5003 10C12.9606 10 13.3337 9.44036 13.3337 8.75C13.3337 8.05964 12.9606 7.5 12.5003 7.5C12.0401 7.5 11.667 8.05964 11.667 8.75C11.667 9.44036 12.0401 10 12.5003 10Z" fill="white"/>
<path d="M7.50033 10C7.96056 10 8.33366 9.44036 8.33366 8.75C8.33366 8.05964 7.96056 7.5 7.50033 7.5C7.04009 7.5 6.66699 8.05964 6.66699 8.75C6.66699 9.44036 7.04009 10 7.50033 10Z" fill="white"/>
<path d="M18.3337 11.666C18.3337 14.8087 18.3337 16.3801 17.3573 17.3563C16.3811 18.3327 14.8097 18.3327 11.667 18.3327" stroke="white" stroke-width="1.5" stroke-linecap="round"/>
<path d="M8.33366 18.3327C5.19096 18.3327 3.61962 18.3327 2.6433 17.3563C1.66699 16.3801 1.66699 14.8087 1.66699 11.666" stroke="white" stroke-width="1.5" stroke-linecap="round"/>
<path d="M8.33366 1.66602C5.19096 1.66602 3.61962 1.66602 2.6433 2.64232C1.66699 3.61864 1.66699 5.18998 1.66699 8.33268" stroke="white" stroke-width="1.5" stroke-linecap="round"/>
<path d="M11.667 1.66602C14.8097 1.66602 16.3811 1.66602 17.3573 2.64232C18.3337 3.61864 18.3337 5.18998 18.3337 8.33268" stroke="white" stroke-width="1.5" stroke-linecap="round"/>
</g>
<defs>
<clipPath id="clip0_3778_16357">
<rect width="20" height="20" fill="white"/>
</clipPath>
</defs>
</svg>
