<svg width="24" height="23" viewBox="0 0 24 23" fill="none" xmlns="http://www.w3.org/2000/svg">
<path d="M12 5.66667V20.8333M12 5.66667H7.875C7.26721 5.66667 6.68432 5.42084 6.25455 4.98324C5.82477 4.54566 5.58333 3.95217 5.58333 3.33333C5.58333 2.7145 5.82477 2.121 6.25455 1.68342C6.68432 1.24583 7.26721 1 7.875 1C11.0833 1 12 5.66667 12 5.66667ZM12 5.66667H16.125C16.7328 5.66667 17.3157 5.42084 17.7455 4.98324C18.1752 4.54566 18.4167 3.95217 18.4167 3.33333C18.4167 2.7145 18.1752 2.121 17.7455 1.68342C17.3157 1.24583 16.7328 1 16.125 1C12.9166 1 12 5.66667 12 5.66667ZM3.83333 11.5H20.1667V18.2667C20.1667 19.5734 20.1667 20.2269 19.9123 20.726C19.6887 21.165 19.3317 21.522 18.8927 21.7457C18.3936 22 17.7401 22 16.4333 22H7.56667C6.25987 22 5.60648 22 5.10736 21.7457C4.6683 21.522 4.31135 21.165 4.08765 20.726C3.83333 20.2269 3.83333 19.5734 3.83333 18.2667V11.5ZM3.36667 11.5H20.6333C21.2868 11.5 21.6134 11.5 21.863 11.3728C22.0826 11.2609 22.2609 11.0826 22.3728 10.863C22.5 10.6134 22.5 10.2868 22.5 9.63333V7.53333C22.5 6.87994 22.5 6.55324 22.3728 6.30368C22.2609 6.08416 22.0826 5.90568 21.863 5.79382C21.6134 5.66667 21.2868 5.66667 20.6333 5.66667H3.36667C2.71327 5.66667 2.38657 5.66667 2.13701 5.79382C1.91749 5.90568 1.73901 6.08416 1.62715 6.30368C1.5 6.55324 1.5 6.87994 1.5 7.53333V9.63333C1.5 10.2868 1.5 10.6134 1.62715 10.863C1.73901 11.0826 1.91749 11.2609 2.13701 11.3728C2.38657 11.5 2.71327 11.5 3.36667 11.5Z" stroke="#CA174D" stroke-width="2" stroke-linecap="round" stroke-linejoin="round"/>
</svg>
