<svg width="21" height="21" viewBox="0 0 21 21" fill="none" xmlns="http://www.w3.org/2000/svg">
<g clip-path="url(#clip0_1639_10790)">
<path d="M19.556 18.8033H1.66739V0.91475C1.66739 0.533518 1.34481 0.210938 0.963578 0.210938C0.582346 0.210938 0.259766 0.533518 0.259766 0.91475V19.5071C0.259766 19.8884 0.582346 20.2109 0.963578 20.2109H19.556C19.9372 20.2109 20.2598 19.8884 20.2598 19.5071C20.2598 19.1259 19.9372 18.8033 19.556 18.8033Z" fill="#212325"/>
<path d="M8.49981 16.077V5.93038C8.49981 5.54914 8.17723 5.22656 7.796 5.22656C7.41477 5.22656 7.09219 5.54914 7.09219 5.93038V16.1063C7.09219 16.4876 7.41477 16.8101 7.796 16.8101C8.17723 16.8101 8.49981 16.4876 8.49981 16.077ZM5.09805 16.077V5.93038C5.09805 5.54914 4.77547 5.22656 4.39424 5.22656C4.01301 5.22656 3.69043 5.54914 3.69043 5.93038V16.1063C3.69043 16.4876 4.01301 16.8101 4.39424 16.8101C4.77547 16.7808 5.09805 16.4876 5.09805 16.077ZM15.3327 16.077V5.93038C15.3327 5.54914 15.0101 5.22656 14.6288 5.22656C14.2476 5.22656 13.925 5.54914 13.925 5.93038V16.1063C13.925 16.4876 14.2476 16.8101 14.6288 16.8101C15.0101 16.7808 15.3327 16.4876 15.3327 16.077ZM18.7344 16.077V11.0037C18.7344 10.6225 18.4118 10.2999 18.0306 10.2999C17.6494 10.2999 17.3268 10.6225 17.3268 11.0037V16.077C17.3268 16.4582 17.6494 16.7808 18.0306 16.7808C18.4118 16.7808 18.7344 16.4876 18.7344 16.077ZM11.9016 16.077V11.0037C11.9016 10.6225 11.579 10.2999 11.1978 10.2999C10.8165 10.2999 10.4939 10.6225 10.4939 11.0037V16.077C10.4939 16.4582 10.8165 16.7808 11.1978 16.7808C11.579 16.7808 11.9016 16.4876 11.9016 16.077Z" fill="#212325"/>
</g>
<defs>
<clipPath id="clip0_1639_10790">
<rect width="21" height="21" fill="white"/>
</clipPath>
</defs>
</svg>
