<svg width="21" height="21" viewBox="0 0 21 21" fill="none" xmlns="http://www.w3.org/2000/svg">
<path d="M10.6504 0.650391C8.67258 0.650391 6.73918 1.23688 5.09469 2.33569C3.4502 3.43451 2.16848 4.99629 1.4116 6.82355C0.654723 8.65081 0.45669 10.6615 0.842542 12.6013C1.22839 14.5411 2.1808 16.3229 3.57933 17.7215C4.97785 19.12 6.75968 20.0724 8.69949 20.4582C10.6393 20.8441 12.65 20.6461 14.4772 19.8892C16.3045 19.1323 17.8663 17.8506 18.9651 16.2061C20.0639 14.5616 20.6504 12.6282 20.6504 10.6504C20.6504 9.33717 20.3917 8.03681 19.8892 6.82355C19.3866 5.6103 18.65 4.50791 17.7215 3.57932C16.7929 2.65074 15.6905 1.91414 14.4772 1.41159C13.264 0.909048 11.9636 0.650391 10.6504 0.650391ZM11.6504 14.6504C11.6504 14.9156 11.545 15.17 11.3575 15.3575C11.17 15.545 10.9156 15.6504 10.6504 15.6504C10.3852 15.6504 10.1308 15.545 9.94329 15.3575C9.75575 15.17 9.65039 14.9156 9.65039 14.6504V9.65039C9.65039 9.38517 9.75575 9.13082 9.94329 8.94328C10.1308 8.75574 10.3852 8.65039 10.6504 8.65039C10.9156 8.65039 11.17 8.75574 11.3575 8.94328C11.545 9.13082 11.6504 9.38517 11.6504 9.65039V14.6504ZM10.6504 7.65039C10.4526 7.65039 10.2593 7.59174 10.0948 7.48186C9.93037 7.37198 9.8022 7.2158 9.72651 7.03307C9.65082 6.85035 9.63102 6.64928 9.66961 6.4553C9.70819 6.26132 9.80343 6.08313 9.94329 5.94328C10.0831 5.80343 10.2613 5.70819 10.4553 5.6696C10.6493 5.63102 10.8503 5.65082 11.0331 5.72651C11.2158 5.8022 11.372 5.93037 11.4819 6.09482C11.5917 6.25927 11.6504 6.45261 11.6504 6.65039C11.6504 6.9156 11.545 7.16996 11.3575 7.35749C11.17 7.54503 10.9156 7.65039 10.6504 7.65039Z" fill="#212325"/>
</svg>
