<svg width="20" height="6" viewBox="0 0 20 6" fill="none" xmlns="http://www.w3.org/2000/svg">
<path d="M10 0.777344C9.56049 0.777344 9.13084 0.907675 8.7654 1.15186C8.39996 1.39604 8.11513 1.7431 7.94694 2.14916C7.77874 2.55522 7.73473 3.00203 7.82048 3.4331C7.90622 3.86417 8.11787 4.26013 8.42865 4.57091C8.73944 4.8817 9.1354 5.09334 9.56647 5.17909C9.99754 5.26483 10.4444 5.22083 10.8504 5.05263C11.2565 4.88444 11.6035 4.59961 11.8477 4.23417C12.0919 3.86872 12.2222 3.43908 12.2222 2.99957C12.2222 2.4102 11.9881 1.84497 11.5713 1.42822C11.1546 1.01147 10.5894 0.777344 10 0.777344ZM2.22222 0.777344C1.78271 0.777344 1.35307 0.907675 0.987623 1.15186C0.62218 1.39604 0.337352 1.7431 0.169158 2.14916C0.000962847 2.55522 -0.0430446 3.00203 0.0427004 3.4331C0.128445 3.86417 0.340091 4.26013 0.650875 4.57091C0.961658 4.8817 1.35762 5.09334 1.78869 5.17909C2.21976 5.26483 2.66657 5.22083 3.07263 5.05263C3.47869 4.88444 3.82575 4.59961 4.06993 4.23417C4.31411 3.86872 4.44445 3.43908 4.44445 2.99957C4.44445 2.4102 4.21032 1.84497 3.79357 1.42822C3.37682 1.01147 2.81159 0.777344 2.22222 0.777344ZM17.7778 0.777344C17.3383 0.777344 16.9086 0.907675 16.5432 1.15186C16.1777 1.39604 15.8929 1.7431 15.7247 2.14916C15.5565 2.55522 15.5125 3.00203 15.5983 3.4331C15.684 3.86417 15.8956 4.26013 16.2064 4.57091C16.5172 4.8817 16.9132 5.09334 17.3442 5.17909C17.7753 5.26483 18.2221 5.22083 18.6282 5.05263C19.0342 4.88444 19.3813 4.59961 19.6255 4.23417C19.8697 3.86872 20 3.43908 20 2.99957C20 2.4102 19.7659 1.84497 19.3491 1.42822C18.9324 1.01147 18.3671 0.777344 17.7778 0.777344Z" fill="#212325"/>
</svg>
