<svg width="20" height="20" viewBox="0 0 20 20" fill="none" xmlns="http://www.w3.org/2000/svg">
<path d="M10 0C4.48307 0 0 4.48307 0 10C0 15.5169 4.48307 20 10 20C10.5858 20 11.1565 19.9388 11.7148 19.8418L10.834 18.9609C10.5593 18.9862 10.2815 19 10 19C7.78051 19 5.75548 18.1954 4.1875 16.8672L4.28711 16.8359L5.08789 16.6152L5.90039 16.4277L6.7168 16.2734L6.94727 16.2168L7.16992 16.123L7.37109 15.9961L7.55078 15.8359L7.70117 15.6523L7.82227 15.4434L7.91016 15.2207L7.95703 14.9863L7.9707 14.748L7.94336 14.5098L7.87891 14.2793L7.7793 14.0625L7.64844 13.8652L7.49023 13.6445L7.35352 13.416L7.07422 12.8555L6.82617 12.2793L6.60938 11.6934L6.42383 11.0938L6.27344 10.4863L6.1543 9.87109L6.06836 9.25195L6.01562 8.62891L6 8.00195L6.01953 7.60938L6.07812 7.2207L6.17188 6.83984L6.30469 6.4707L6.47266 6.11523L6.67383 5.7793L6.9082 5.46289L7.16992 5.17188L7.46289 4.9082L7.77734 4.67383L8.11523 4.47461L8.4707 4.30469L8.83984 4.17383L9.21875 4.07812L9.60742 4.01953L10 4L10.3926 4.01953L10.7812 4.07812L11.1602 4.17383L11.5293 4.30469L11.8867 4.47461L12.2227 4.67383L12.5371 4.9082L12.8301 5.17188L13.0918 5.46289L13.3262 5.7793L13.5273 6.11523L13.6953 6.4707L13.8281 6.83984L13.9238 7.2207L13.9824 7.60938L14 8.00195L13.9844 8.62891L13.9316 9.25195L13.8457 9.87109L13.7285 10.4863L13.5762 11.0938L13.3906 11.6934L13.1738 12.2793L12.9258 12.8555L12.6465 13.416L12.5098 13.6445L12.3516 13.8652L12.2207 14.0625L12.1211 14.2793L12.0566 14.5098L12.0293 14.748L12.043 14.9863L12.0918 15.2207L12.1777 15.4434L12.2988 15.6523L12.4512 15.8359L12.6289 15.9961L12.8301 16.123L13.0527 16.2168L13.2832 16.2734L14.0996 16.4277L14.3809 16.4922L15.2109 15.6621L15.1562 15.6465L14.3066 15.4492L13.4473 15.2871L13.3223 15.25L13.2129 15.1816L13.125 15.0879L13.0625 14.9746L13.0332 14.8477L13.0352 14.7207L13.0703 14.5957L13.1367 14.4844L13.3477 14.1934L13.5293 13.8848L13.834 13.2754L14.1035 12.6523L14.3398 12.0137L14.541 11.3613L14.7051 10.7031L14.834 10.0352L14.9258 9.35938L14.9824 8.68164L15 8.00195L14.9824 7.56641L14.9238 7.13281L14.8301 6.70703L14.6973 6.29102L14.5312 5.88867L14.3301 5.5L14.0977 5.13281L13.8301 4.78711L13.5371 4.46484L13.2129 4.17188L12.8691 3.90625L12.5 3.66992L12.1133 3.46875L11.7109 3.30273L11.2949 3.16992L10.8672 3.07617L10.4355 3.01953L10 3L9.56445 3.01953L9.13281 3.07617L8.70508 3.16992L8.28906 3.30273L7.88672 3.46875L7.5 3.66992L7.13281 3.90625L6.78711 4.17188L6.46289 4.46484L6.16992 4.78711L5.9043 5.13281L5.66992 5.5L5.46875 5.88867L5.30273 6.29102L5.16992 6.70703L5.07617 7.13281L5.01953 7.56641L5 8.00195L5.01758 8.68164L5.07422 9.35938L5.16602 10.0352L5.29492 10.7031L5.45898 11.3613L5.66016 12.0137L5.89844 12.6523L6.16602 13.2754L6.4707 13.8848L6.65234 14.1934L6.86328 14.4844L6.92969 14.5957L6.96484 14.7207L6.96875 14.8477L6.9375 14.9746L6.875 15.0879L6.78711 15.1816L6.67773 15.25L6.55273 15.2871L5.69531 15.4492L4.84375 15.6465L4.00195 15.8789L3.375 16.0801C1.90458 14.4786 1 12.3494 1 10C1 5.02351 5.02351 1 10 1C14.9765 1 19 5.02351 19 10C19 10.7701 18.8934 11.5127 18.7109 12.2246C18.9344 12.0863 19.1903 12.0035 19.457 11.9961C19.5721 11.9929 19.6802 12.0178 19.7891 12.041C19.9262 11.3818 20 10.6995 20 10C20 4.48307 15.5169 0 10 0ZM19.4844 12.9961C19.3546 12.9997 19.2313 13.0536 19.1406 13.1465L13.4941 18.793L10.8477 16.1465C10.3764 15.6557 9.64982 16.3823 10.1406 16.8535L13.1406 19.8535C13.3359 20.0487 13.6524 20.0487 13.8477 19.8535L19.8477 13.8535C20.1729 13.5355 19.9391 12.9836 19.4844 12.9961Z" fill="white"/>
</svg>
