<svg width="29" height="21" viewBox="0 0 29 21" fill="none" xmlns="http://www.w3.org/2000/svg">
<path d="M27.6825 21.046H9.23386C8.50755 21.046 7.91568 20.4554 7.91568 19.7285V18.4109C7.91568 18.1697 8.04816 17.9483 8.25973 17.8323L14.7096 14.3147C12.5491 11.9782 12.5254 8.67287 12.5254 8.51997L12.5293 4.57003C12.5293 4.53312 12.5326 4.49687 12.5385 4.46128C12.9927 1.76824 15.9658 -0.0403082 18.4578 -0.0403082H18.4605C20.9512 -0.0403082 23.9237 1.76692 24.3791 4.45931C24.385 4.49556 24.3883 4.53246 24.3883 4.56871L24.3903 8.51931C24.3903 8.67156 24.3666 11.9769 22.2068 14.3134L28.6566 17.8309C28.8682 17.9469 29 18.1684 29 18.4096V19.7285C29 20.4554 28.4088 21.046 27.6825 21.046ZM20.7785 15.0351C20.5854 14.9296 20.4575 14.7352 20.4371 14.5164C20.4173 14.2976 20.5083 14.0834 20.6783 13.9449C23.0491 12.023 23.0728 8.5549 23.0728 8.51997L23.0702 4.62737C22.6997 2.6501 20.3547 1.27656 18.4578 1.27656C16.5603 1.27721 14.2166 2.65142 13.8475 4.62869L13.8435 8.52128C13.8435 8.5549 13.8798 12.0342 16.2374 13.9463C16.4081 14.0847 16.499 14.2989 16.4786 14.5177C16.4588 14.7365 16.331 14.9309 16.1378 15.0364L9.23386 18.8024V19.7285H27.6812L27.6818 18.8018L20.7785 15.0351ZM12.2901 1.61599C11.7081 1.38992 11.1044 1.27128 10.5422 1.27128C8.64464 1.27194 6.30025 2.64615 5.93116 4.62342L5.9272 8.51601C5.9272 8.55028 5.9628 12.029 8.32102 13.941C8.49173 14.0794 8.58268 14.2936 8.56291 14.5124C8.54248 14.7312 8.41461 14.9257 8.2215 15.0311L1.31752 18.7972V19.7232H5.9305C6.29432 19.7232 6.58893 20.0185 6.58893 20.3823C6.58893 20.7461 6.29432 21.0414 5.9305 21.0414H1.31752C0.591205 21.0414 0 20.4502 0 19.7232V18.4057C0 18.1651 0.131818 17.943 0.343386 17.8276L6.79325 14.3094C4.63341 11.9729 4.60902 8.6676 4.60902 8.51535L4.61298 4.56476C4.61298 4.52851 4.61627 4.4916 4.6222 4.45601C5.07632 1.76362 8.04948 -0.0449219 10.5422 -0.0449219C10.5448 -0.0449219 10.5488 -0.0449219 10.552 -0.0449219C11.2711 -0.0449219 12.0363 0.104692 12.7659 0.387442C13.106 0.51926 13.2741 0.900874 13.1429 1.23965C13.0105 1.57908 12.6269 1.74781 12.2901 1.61599Z" fill="#CA174D"/>
</svg>
