<svg width="22" height="20" viewBox="0 0 22 20" fill="none" xmlns="http://www.w3.org/2000/svg">
<path d="M7.7 8.89961C8.57024 8.89961 9.42093 8.64155 10.1445 8.15808C10.8681 7.6746 11.432 6.98741 11.7651 6.18342C12.0981 5.37942 12.1852 4.49473 12.0155 3.64121C11.8457 2.7877 11.4266 2.00369 10.8113 1.38834C10.1959 0.77299 9.41191 0.353931 8.5584 0.184156C7.70488 0.0143812 6.82019 0.101516 6.01619 0.434541C5.2122 0.767567 4.52501 1.33153 4.04153 2.0551C3.55806 2.77868 3.3 3.62937 3.3 4.49961C3.3 5.66656 3.76357 6.78572 4.58873 7.61088C5.41389 8.43604 6.53305 8.89961 7.7 8.89961ZM16.5 11.0996C17.1527 11.0996 17.7907 10.9061 18.3334 10.5435C18.8761 10.1809 19.299 9.66546 19.5488 9.06247C19.7986 8.45947 19.8639 7.79595 19.7366 7.15581C19.6093 6.51568 19.295 5.92767 18.8335 5.46616C18.3719 5.00465 17.7839 4.69035 17.1438 4.56302C16.5037 4.43569 15.8401 4.50104 15.2371 4.75081C14.6341 5.00058 14.1188 5.42355 13.7562 5.96623C13.3935 6.50891 13.2 7.14693 13.2 7.79961C13.2 8.67482 13.5477 9.51419 14.1665 10.1331C14.7854 10.7519 15.6248 11.0996 16.5 11.0996ZM20.9 18.7996C21.1917 18.7996 21.4715 18.6837 21.6778 18.4774C21.8841 18.2711 22 17.9913 22 17.6996C21.9991 16.6715 21.7101 15.6643 21.1658 14.7922C20.6214 13.92 19.8435 13.2179 18.9204 12.7655C17.9972 12.3131 16.9657 12.1285 15.943 12.2326C14.9202 12.3367 13.9471 12.7254 13.134 13.3546C12.0566 12.2814 10.6855 11.5513 9.19361 11.2563C7.70175 10.9613 6.15595 11.1147 4.75115 11.6971C3.34635 12.2795 2.14545 13.2648 1.29992 14.5288C0.454376 15.7928 0.00205721 17.2789 0 18.7996C0 19.0913 0.115892 19.3711 0.322183 19.5774C0.528472 19.7837 0.808262 19.8996 1.1 19.8996H14.3C14.5917 19.8996 14.8715 19.7837 15.0778 19.5774C15.2841 19.3711 15.4 19.0913 15.4 18.7996" fill="#212325"/>
</svg>
