<svg width="20" height="20" viewBox="0 0 20 20" fill="none" xmlns="http://www.w3.org/2000/svg">
<path d="M19.9996 9.18413H10.8154V0C13.1876 0.190669 15.4145 1.21951 17.0973 2.9023C18.7801 4.5851 19.8089 6.81195 19.9996 9.18413Z" fill="white"/>
<path d="M20 10.854C19.8338 12.7539 19.1288 14.567 17.9678 16.08C16.8068 17.5931 15.238 18.7434 13.4459 19.3957C11.6537 20.0481 9.71257 20.1753 7.85058 19.7625C5.98859 19.3497 4.2831 18.4141 2.93451 17.0655C1.58593 15.7169 0.650267 14.0114 0.237483 12.1494C-0.1753 10.2874 -0.0480583 8.34631 0.604257 6.55414C1.25657 4.76197 2.40686 3.19321 3.91995 2.03221C5.43305 0.871204 7.24609 0.166187 9.14602 0V10.0191C9.14602 10.2405 9.23399 10.4529 9.39057 10.6094C9.54715 10.766 9.75951 10.854 9.98095 10.854H20Z" fill="white"/>
</svg>
