<svg width="23" height="22" viewBox="0 0 23 22" fill="none" xmlns="http://www.w3.org/2000/svg">
<path d="M15.3709 8.11864H7.43975V7.12725H15.3709V8.11864ZM10.5428 19.024L11.5977 20.0154H2.97848C1.61234 20.0154 0.5 18.4589 0.5 16.5455C0.5 14.6321 1.61234 13.0756 2.97848 13.0756H4.46557V3.90522C4.46557 1.85502 5.57791 0.1875 6.94405 0.1875H19.8322C21.1983 0.1875 22.2611 1.74399 22.2611 3.65737C22.2611 5.57076 21.1983 7.12725 19.8322 7.12725H18.3451V14.2038L17.3537 15.1744V3.90522C17.3451 2.95889 17.5626 2.02418 17.9882 1.17889H6.94405C6.24215 1.17889 5.45696 2.34477 5.45696 3.90522V13.0756H15.936L15.2321 13.8945C14.6477 14.6518 14.3462 15.5895 14.3795 16.5455C14.3797 16.7749 14.3953 17.0041 14.4261 17.2315L13.403 16.2689C13.4275 15.5056 13.6105 14.7558 13.9403 14.067H2.97848C2.18636 14.067 1.49139 15.2249 1.49139 16.5455C1.49139 17.866 2.18636 19.024 2.97848 19.024H10.5428ZM18.3451 6.13586H19.8322C20.6243 6.13586 21.3688 4.97791 21.3688 3.65737C21.3688 2.33684 20.6243 1.17889 19.8322 1.17889H19.161C18.6064 1.97798 18.3207 2.93286 18.3451 3.90522V6.13586ZM7.43975 11.0928H15.3709V10.1014H7.43975V11.0928ZM15.3709 4.15307H7.43975V5.14446H15.3709V4.15307ZM21.806 12.8962L14.8683 19.6882L12.0606 17.0481L11.3815 17.7699L14.8811 21.0623L22.5 13.605L21.806 12.8962Z" fill="white"/>
</svg>
