<svg width="20" height="20" viewBox="0 0 20 20" fill="none" xmlns="http://www.w3.org/2000/svg">
<g clip-path="url(#clip0_1639_10798)">
<mask id="mask0_1639_10798" style="mask-type:luminance" maskUnits="userSpaceOnUse" x="0" y="0" width="20" height="20">
<path d="M20 0H0V20H20V0Z" fill="white"/>
</mask>
<g mask="url(#mask0_1639_10798)">
<path fill-rule="evenodd" clip-rule="evenodd" d="M11.4009 19.2554C10.6449 19.4013 9.50244 19.4179 8.72338 19.2829C8.5315 19.2498 8.33213 19.0713 8.27775 18.8844L7.77244 17.1457C7.71806 16.9588 7.53744 16.7282 7.369 16.631L5.53806 15.5741C5.36963 15.4769 5.08025 15.4388 4.89244 15.4891L3.16775 15.9513C2.97994 16.0016 2.72556 15.9216 2.60025 15.7732C2.11838 15.2026 1.57088 14.2519 1.31994 13.5704C1.25275 13.3879 1.30744 13.126 1.44181 12.9854L2.73869 11.6332C2.87306 11.4929 2.98244 11.221 2.98244 11.0263V8.91225C2.98244 8.71788 2.87088 8.44819 2.73338 8.31069L1.44056 7.01819C1.30306 6.88069 1.24619 6.621 1.31338 6.4385C1.37338 6.27569 1.59963 5.79069 1.8715 5.32007C2.14931 4.83913 2.46338 4.39194 2.58213 4.25038C2.70681 4.10132 2.9615 4.01788 3.15056 4.06444L4.99556 4.51757C5.18431 4.56382 5.47463 4.52257 5.64306 4.42538L7.47369 3.36819C7.64213 3.271 7.81994 3.03944 7.87025 2.85163L8.3365 1.11131C8.38681 0.923502 8.58338 0.744752 8.77525 0.712252C9.47994 0.593502 10.5653 0.59444 11.2887 0.72444C11.4799 0.758815 11.6762 0.939127 11.7265 1.12694L12.1887 2.85163C12.239 3.03944 12.4168 3.271 12.5849 3.36819L14.4159 4.42538C14.5843 4.52257 14.8737 4.56069 15.0615 4.51038L16.7862 4.04819C16.974 3.99788 17.2284 4.07756 17.3537 4.226C17.8562 4.821 18.4149 5.80319 18.6696 6.51631C18.7349 6.69975 18.6765 6.96006 18.539 7.09756L17.3256 8.31069C17.1881 8.44819 17.0765 8.71788 17.0765 8.91225V11.0263C17.0765 11.221 17.1881 11.4904 17.3256 11.6279L18.5571 12.8594C18.6946 12.9969 18.7537 13.2576 18.689 13.441C18.6174 13.6441 18.3765 14.1698 18.0824 14.6794C17.8046 15.1604 17.4906 15.6076 17.3718 15.7494C17.2468 15.8982 16.9928 15.9785 16.8049 15.9282L15.1665 15.4891C14.9784 15.4388 14.6893 15.4769 14.5209 15.5741L12.6899 16.631C12.5215 16.7282 12.344 16.9598 12.2937 17.1476L11.8381 18.8482C11.7878 19.036 11.5918 19.2185 11.4009 19.2554ZM5.77088 9.99975C5.77088 7.666 7.66525 5.77132 9.999 5.77132C12.3324 5.77132 14.2271 7.666 14.2271 9.99975C14.2271 12.3332 12.3324 14.2279 9.999 14.2279C7.66525 14.2279 5.77088 12.3332 5.77088 9.99975Z" fill="#212325"/>
</g>
</g>
<defs>
<clipPath id="clip0_1639_10798">
<rect width="20" height="20" fill="white"/>
</clipPath>
</defs>
</svg>
