<svg width="36" height="40" viewBox="0 0 36 40" fill="none" xmlns="http://www.w3.org/2000/svg">
<path d="M35.2284 5.59821C35.1566 5.08247 34.7855 4.65824 34.2839 4.51881L18.2071 0.0478435C17.9781 -0.0159478 17.7358 -0.0159478 17.5066 0.0478435L1.42982 4.51881C0.928034 4.65824 0.556964 5.0823 0.485329 5.59821C0.392083 6.26871 -1.73516 22.1114 3.72108 29.9924C9.17088 37.8644 17.2105 39.8817 17.55 39.9636C17.6509 39.988 17.7538 40 17.8569 40C17.9601 40 18.063 39.9878 18.1639 39.9636C18.5036 39.8815 26.5432 37.8642 31.9928 29.9924C37.4489 22.1114 35.3216 6.26871 35.2284 5.59821ZM29.6447 28.3607C24.9179 35.1885 17.8374 36.8986 17.8374 36.8986V20H3.24543C2.3982 13.6579 3.30365 7.14332 3.30365 7.14332L17.8373 3.10146L17.8374 20H32.4292C32.0174 23.0838 31.1912 26.127 29.6447 28.3607Z" fill="#212325"/>
</svg>
