<svg width="21" height="20" viewBox="0 0 21 20" fill="none" xmlns="http://www.w3.org/2000/svg">
<path d="M10.6499 6.28086H2.88807C2.806 6.28075 2.72538 6.2591 2.6543 6.21806C2.58322 6.17702 2.52416 6.11804 2.48302 6.04701C2.44189 5.97598 2.42013 5.89539 2.41992 5.81331C2.41971 5.73123 2.44106 5.65054 2.48182 5.5793L4.34776 2.31211C4.38873 2.24052 4.44787 2.181 4.5192 2.13957C4.59053 2.09815 4.67153 2.07628 4.75401 2.07617H10.6499C10.7743 2.07617 10.8935 2.12556 10.9814 2.21347C11.0693 2.30137 11.1187 2.4206 11.1187 2.54492C11.1187 2.66924 11.0693 2.78847 10.9814 2.87638C10.8935 2.96429 10.7743 3.01367 10.6499 3.01367H5.02682L3.69589 5.34336H10.6499C10.7743 5.34336 10.8935 5.39275 10.9814 5.48065C11.0693 5.56856 11.1187 5.68779 11.1187 5.81211C11.1187 5.93643 11.0693 6.05566 10.9814 6.14357C10.8935 6.23147 10.7743 6.28086 10.6499 6.28086Z" fill="#212325"/>
<path d="M18.4124 6.28086H10.6505C10.5262 6.28086 10.407 6.23147 10.3191 6.14357C10.2312 6.05566 10.1818 5.93643 10.1818 5.81211C10.1818 5.68779 10.2312 5.56856 10.3191 5.48065C10.407 5.39275 10.5262 5.34336 10.6505 5.34336H17.6046L16.2737 3.01367H10.6505C10.5262 3.01367 10.407 2.96429 10.3191 2.87638C10.2312 2.78847 10.1818 2.66924 10.1818 2.54492C10.1818 2.4206 10.2312 2.30137 10.3191 2.21347C10.407 2.12556 10.5262 2.07617 10.6505 2.07617H16.5455C16.628 2.07628 16.709 2.09815 16.7804 2.13957C16.8517 2.181 16.9108 2.24052 16.9518 2.31211L18.8193 5.57898C18.8601 5.65022 18.8814 5.73092 18.8812 5.813C18.881 5.89508 18.8592 5.97566 18.8181 6.04669C18.777 6.11772 18.7179 6.17671 18.6468 6.21775C18.5757 6.25879 18.4951 6.28044 18.413 6.28055L18.4124 6.28086ZM4.8293 9.77055C4.19052 9.7698 3.57812 9.51572 3.12643 9.06403C2.67475 8.61235 2.42067 7.99995 2.41992 7.36117V5.81211C2.41992 5.68779 2.46931 5.56856 2.55722 5.48065C2.64512 5.39275 2.76435 5.34336 2.88867 5.34336C3.01299 5.34336 3.13222 5.39275 3.22013 5.48065C3.30804 5.56856 3.35742 5.68779 3.35742 5.81211V7.36148C3.35458 7.55656 3.39055 7.75025 3.46323 7.9313C3.53592 8.11235 3.64387 8.27714 3.78081 8.41609C3.91776 8.55505 4.08096 8.66539 4.26093 8.74071C4.4409 8.81602 4.63405 8.85481 4.82914 8.85481C5.02423 8.85481 5.21738 8.81602 5.39735 8.74071C5.57732 8.66539 5.74052 8.55505 5.87747 8.41609C6.01441 8.27714 6.12236 8.11235 6.19505 7.9313C6.26774 7.75025 6.3037 7.55656 6.30086 7.36148V5.81211C6.30086 5.68779 6.35025 5.56856 6.43815 5.48065C6.52606 5.39275 6.64529 5.34336 6.76961 5.34336C6.89393 5.34336 7.01316 5.39275 7.10107 5.48065C7.18897 5.56856 7.23836 5.68779 7.23836 5.81211V7.36148C7.23761 8.00018 6.98356 8.6125 6.53194 9.06413C6.08031 9.51575 5.46799 9.7698 4.8293 9.77055Z" fill="#212325"/>
<path d="M8.71016 9.77094C8.07138 9.77019 7.45898 9.51611 7.00729 9.06443C6.55561 8.61274 6.30153 8.00034 6.30078 7.36156V5.8125C6.30078 5.68818 6.35017 5.56895 6.43808 5.48104C6.52598 5.39314 6.64521 5.34375 6.76953 5.34375C6.89385 5.34375 7.01308 5.39314 7.10099 5.48104C7.1889 5.56895 7.23828 5.68818 7.23828 5.8125V7.36188C7.23544 7.55695 7.27141 7.75064 7.34409 7.93169C7.41678 8.11274 7.52473 8.27753 7.66167 8.41648C7.79862 8.55544 7.96182 8.66578 8.14179 8.7411C8.32176 8.81641 8.51491 8.8552 8.71 8.8552C8.90509 8.8552 9.09824 8.81641 9.27821 8.7411C9.45818 8.66578 9.62138 8.55544 9.75833 8.41648C9.89527 8.27753 10.0032 8.11274 10.0759 7.93169C10.1486 7.75064 10.1846 7.55695 10.1817 7.36188V5.8125C10.1817 5.68818 10.2311 5.56895 10.319 5.48104C10.4069 5.39314 10.5261 5.34375 10.6505 5.34375C10.7748 5.34375 10.894 5.39314 10.9819 5.48104C11.0698 5.56895 11.1192 5.68818 11.1192 5.8125V7.36188C11.1185 8.00057 10.8644 8.61289 10.4128 9.06452C9.96117 9.51614 9.34885 9.77019 8.71016 9.77094Z" fill="#212325"/>
<path d="M12.5907 9.77094C11.952 9.77019 11.3396 9.5161 10.888 9.06441C10.4363 8.61271 10.1823 8.00031 10.1816 7.36156V5.8125C10.1816 5.68818 10.231 5.56895 10.3189 5.48104C10.4068 5.39314 10.5261 5.34375 10.6504 5.34375C10.7747 5.34375 10.8939 5.39314 10.9818 5.48104C11.0698 5.56895 11.1191 5.68818 11.1191 5.8125V7.36188C11.1163 7.55695 11.1523 7.75064 11.2249 7.93169C11.2976 8.11274 11.4056 8.27753 11.5425 8.41648C11.6795 8.55544 11.8427 8.66578 12.0226 8.7411C12.2026 8.81641 12.3958 8.8552 12.5909 8.8552C12.786 8.8552 12.9791 8.81641 13.1591 8.7411C13.339 8.66578 13.5022 8.55544 13.6392 8.41648C13.7761 8.27753 13.8841 8.11274 13.9568 7.93169C14.0295 7.75064 14.0654 7.55695 14.0626 7.36188V5.8125C14.0626 5.68818 14.112 5.56895 14.1999 5.48104C14.2878 5.39314 14.407 5.34375 14.5313 5.34375C14.6556 5.34375 14.7749 5.39314 14.8628 5.48104C14.9507 5.56895 15.0001 5.68818 15.0001 5.8125V7.36188C14.9993 8.0006 14.7451 8.61292 14.2935 9.06454C13.8418 9.51615 13.2294 9.77019 12.5907 9.77094Z" fill="#212325"/>
<path d="M16.4716 9.77094C15.8328 9.77019 15.2204 9.5161 14.7688 9.06441C14.3172 8.61271 14.0632 8.00031 14.0625 7.36156V5.8125C14.0625 5.68818 14.1119 5.56895 14.1998 5.48104C14.2877 5.39314 14.4069 5.34375 14.5313 5.34375C14.6556 5.34375 14.7748 5.39314 14.8627 5.48104C14.9506 5.56895 15 5.68818 15 5.8125V7.36188C14.9972 7.55695 15.0331 7.75064 15.1058 7.93169C15.1785 8.11274 15.2864 8.27753 15.4234 8.41648C15.5603 8.55544 15.7235 8.66578 15.9035 8.7411C16.0835 8.81641 16.2766 8.8552 16.4717 8.8552C16.6668 8.8552 16.86 8.81641 17.0399 8.7411C17.2199 8.66578 17.3831 8.55544 17.52 8.41648C17.657 8.27753 17.7649 8.11274 17.8376 7.93169C17.9103 7.75064 17.9463 7.55695 17.9434 7.36188V5.8125C17.9434 5.68818 17.9928 5.56895 18.0807 5.48104C18.1686 5.39314 18.2879 5.34375 18.4122 5.34375C18.5365 5.34375 18.6557 5.39314 18.7436 5.48104C18.8316 5.56895 18.8809 5.68818 18.8809 5.8125V7.36188C18.8801 8.0006 18.626 8.61292 18.1743 9.06454C17.7226 9.51615 17.1103 9.77019 16.4716 9.77094Z" fill="#212325"/>
<path d="M14.5311 6.28108C14.4304 6.28105 14.3324 6.24857 14.2515 6.18846C14.1707 6.12834 14.1114 6.04379 14.0824 5.94733L13.0999 2.68014C13.064 2.56108 13.077 2.43266 13.1358 2.32313C13.1946 2.2136 13.2946 2.13192 13.4136 2.09608C13.5327 2.06023 13.6611 2.07315 13.7706 2.13199C13.8802 2.19083 13.9619 2.29077 13.9977 2.40983L14.9802 5.67702C15.016 5.79586 15.0032 5.92407 14.9446 6.0335C14.8861 6.14294 14.7865 6.22467 14.6677 6.26077C14.6235 6.27435 14.5774 6.2812 14.5311 6.28108ZM6.76988 6.28108C6.72404 6.28118 6.67843 6.27444 6.63457 6.26108C6.51581 6.22498 6.41621 6.14325 6.35762 6.03382C6.29904 5.92438 6.28625 5.79618 6.32207 5.67733L7.30332 2.40983C7.33917 2.29077 7.42084 2.19083 7.53037 2.13199C7.58461 2.10285 7.64405 2.08469 7.70531 2.07853C7.76656 2.07236 7.82843 2.07833 7.88738 2.09608C7.94633 2.11383 8.00121 2.14301 8.04888 2.18197C8.09656 2.22093 8.13609 2.26889 8.16522 2.32313C8.19436 2.37736 8.21252 2.43681 8.21868 2.49806C8.22485 2.55932 8.21888 2.62119 8.20113 2.68014L7.21863 5.94702C7.18968 6.04354 7.13039 6.12816 7.04956 6.18833C6.96872 6.2485 6.87065 6.28103 6.76988 6.28108ZM10.6505 6.28108C10.5262 6.28108 10.407 6.23169 10.3191 6.14378C10.2311 6.05588 10.1818 5.93665 10.1818 5.81233V2.54514C10.1818 2.42082 10.2311 2.30159 10.3191 2.21368C10.407 2.12578 10.5262 2.07639 10.6505 2.07639C10.7748 2.07639 10.8941 2.12578 10.982 2.21368C11.0699 2.30159 11.1193 2.42082 11.1193 2.54514V5.81233C11.1193 5.93665 11.0699 6.05588 10.982 6.14378C10.8941 6.23169 10.7748 6.28108 10.6505 6.28108ZM10.6505 17.9233H3.67676C3.55244 17.9233 3.43321 17.8739 3.3453 17.786C3.25739 17.6981 3.20801 17.5788 3.20801 17.4545V8.92014C3.20801 8.79582 3.25739 8.67659 3.3453 8.58868C3.43321 8.50078 3.55244 8.45139 3.67676 8.45139C3.80108 8.45139 3.92031 8.50078 4.00821 8.58868C4.09612 8.67659 4.14551 8.79582 4.14551 8.92014V16.9858H10.6505C10.7748 16.9858 10.8941 17.0352 10.982 17.1231C11.0699 17.211 11.1193 17.3302 11.1193 17.4545C11.1193 17.5788 11.0699 17.6981 10.982 17.786C10.8941 17.8739 10.7748 17.9233 10.6505 17.9233Z" fill="#212325"/>
<path d="M17.6241 17.923H10.6504C10.5261 17.923 10.4068 17.8737 10.3189 17.7858C10.231 17.6978 10.1816 17.5786 10.1816 17.4543C10.1816 17.33 10.231 17.2107 10.3189 17.1228C10.4068 17.0349 10.5261 16.9855 10.6504 16.9855H17.1554V8.91992C17.1554 8.7956 17.2048 8.67637 17.2927 8.58847C17.3806 8.50056 17.4998 8.45117 17.6241 8.45117C17.7485 8.45117 17.8677 8.50056 17.9556 8.58847C18.0435 8.67637 18.0929 8.7956 18.0929 8.91992V17.4543C18.0929 17.5786 18.0435 17.6978 17.9556 17.7858C17.8677 17.8737 17.7485 17.923 17.6241 17.923Z" fill="#212325"/>
<path d="M14.3631 17.8055C14.2388 17.8055 14.1196 17.7561 14.0317 17.6682C13.9438 17.5803 13.8944 17.461 13.8944 17.3367V12.3789H7.40625V17.303C7.40625 17.4273 7.35686 17.5465 7.26896 17.6344C7.18105 17.7223 7.06182 17.7717 6.9375 17.7717C6.81318 17.7717 6.69395 17.7223 6.60604 17.6344C6.51814 17.5465 6.46875 17.4273 6.46875 17.303V11.9102C6.46875 11.7858 6.51814 11.6666 6.60604 11.5787C6.69395 11.4908 6.81318 11.4414 6.9375 11.4414H14.3631C14.4874 11.4414 14.6067 11.4908 14.6946 11.5787C14.7825 11.6666 14.8319 11.7858 14.8319 11.9102V17.3367C14.8319 17.461 14.7825 17.5803 14.6946 17.6682C14.6067 17.7561 14.4874 17.8055 14.3631 17.8055Z" fill="#212325"/>
</svg>
