<svg width="30" height="40" viewBox="0 0 30 40" fill="none" xmlns="http://www.w3.org/2000/svg">
<path d="M29.1881 39.6875C29.1881 39.8601 29.0482 40 28.8756 40H0.3125C0.139922 40 0 39.8601 0 39.6875V0.3125C0 0.139922 0.139922 0 0.3125 0H22.6896C22.7725 0 22.852 0.0328906 22.9105 0.0914844L29.0966 6.27742C29.1552 6.33609 29.1881 6.41555 29.1881 6.49844V39.6875Z" fill="#212325"/>
<mask id="path-2-inside-1_3778_7005" fill="white">
<path d="M5.44922 7.47461H16.9963C17.1689 7.47461 17.3088 7.33469 17.3088 7.16211C17.3088 6.98953 17.1689 6.84961 16.9963 6.84961H5.44922C5.27664 6.84961 5.13672 6.98953 5.13672 7.16211C5.13672 7.33469 5.27664 7.47461 5.44922 7.47461Z"/>
</mask>
<path d="M5.44922 7.47461H16.9963C17.1689 7.47461 17.3088 7.33469 17.3088 7.16211C17.3088 6.98953 17.1689 6.84961 16.9963 6.84961H5.44922C5.27664 6.84961 5.13672 6.98953 5.13672 7.16211C5.13672 7.33469 5.27664 7.47461 5.44922 7.47461Z" fill="#212325"/>
<path d="M5.44922 12.4746H16.9963V2.47461H5.44922V12.4746ZM16.9963 12.4746C19.9303 12.4746 22.3088 10.0961 22.3088 7.16211H12.3088C12.3088 4.57326 14.4075 2.47461 16.9963 2.47461V12.4746ZM22.3088 7.16211C22.3088 4.22811 19.9303 1.84961 16.9963 1.84961V11.8496C14.4075 11.8496 12.3088 9.75096 12.3088 7.16211H22.3088ZM16.9963 1.84961H5.44922V11.8496H16.9963V1.84961ZM5.44922 1.84961C2.51522 1.84961 0.136719 4.22811 0.136719 7.16211H10.1367C10.1367 9.75096 8.03806 11.8496 5.44922 11.8496V1.84961ZM0.136719 7.16211C0.136719 10.0961 2.51522 12.4746 5.44922 12.4746V2.47461C8.03806 2.47461 10.1367 4.57326 10.1367 7.16211H0.136719Z" fill="white" mask="url(#path-2-inside-1_3778_7005)"/>
<mask id="path-4-inside-2_3778_7005" fill="white">
<path d="M5.44922 10.8457H23.7381C23.9107 10.8457 24.0506 10.7058 24.0506 10.5332C24.0506 10.3606 23.9107 10.2207 23.7381 10.2207H5.44922C5.27664 10.2207 5.13672 10.3606 5.13672 10.5332C5.13672 10.7058 5.27664 10.8457 5.44922 10.8457Z"/>
</mask>
<path d="M5.44922 10.8457H23.7381C23.9107 10.8457 24.0506 10.7058 24.0506 10.5332C24.0506 10.3606 23.9107 10.2207 23.7381 10.2207H5.44922C5.27664 10.2207 5.13672 10.3606 5.13672 10.5332C5.13672 10.7058 5.27664 10.8457 5.44922 10.8457Z" fill="#212325"/>
<path d="M5.44922 15.8457H23.7381V5.8457H5.44922V15.8457ZM23.7381 15.8457C26.6721 15.8457 29.0506 13.4672 29.0506 10.5332H19.0506C19.0506 7.94436 21.1493 5.8457 23.7381 5.8457V15.8457ZM29.0506 10.5332C29.0506 7.5992 26.6721 5.2207 23.7381 5.2207V15.2207C21.1493 15.2207 19.0506 13.122 19.0506 10.5332H29.0506ZM23.7381 5.2207H5.44922V15.2207H23.7381V5.2207ZM5.44922 5.2207C2.51522 5.2207 0.136719 7.5992 0.136719 10.5332H10.1367C10.1367 13.122 8.03806 15.2207 5.44922 15.2207V5.2207ZM0.136719 10.5332C0.136719 13.4672 2.51522 15.8457 5.44922 15.8457V5.8457C8.03806 5.8457 10.1367 7.94436 10.1367 10.5332H0.136719Z" fill="white" mask="url(#path-4-inside-2_3778_7005)"/>
<mask id="path-6-inside-3_3778_7005" fill="white">
<path d="M5.44922 13.3555H23.7381C23.9107 13.3555 24.0506 13.2155 24.0506 13.043C24.0506 12.8704 23.9107 12.7305 23.7381 12.7305H5.44922C5.27664 12.7305 5.13672 12.8704 5.13672 13.043C5.13672 13.2155 5.27664 13.3555 5.44922 13.3555Z"/>
</mask>
<path d="M5.44922 13.3555H23.7381C23.9107 13.3555 24.0506 13.2155 24.0506 13.043C24.0506 12.8704 23.9107 12.7305 23.7381 12.7305H5.44922C5.27664 12.7305 5.13672 12.8704 5.13672 13.043C5.13672 13.2155 5.27664 13.3555 5.44922 13.3555Z" fill="#212325"/>
<path d="M5.44922 18.3555H23.7381V8.35547H5.44922V18.3555ZM23.7381 18.3555C26.6721 18.3555 29.0506 15.977 29.0506 13.043H19.0506C19.0506 10.4541 21.1493 8.35547 23.7381 8.35547V18.3555ZM29.0506 13.043C29.0506 10.109 26.6721 7.73047 23.7381 7.73047V17.7305C21.1493 17.7305 19.0506 15.6318 19.0506 13.043H29.0506ZM23.7381 7.73047H5.44922V17.7305H23.7381V7.73047ZM5.44922 7.73047C2.51522 7.73047 0.136719 10.109 0.136719 13.043H10.1367C10.1367 15.6318 8.03806 17.7305 5.44922 17.7305V7.73047ZM0.136719 13.043C0.136719 15.977 2.51522 18.3555 5.44922 18.3555V8.35547C8.03806 8.35547 10.1367 10.4541 10.1367 13.043H0.136719Z" fill="white" mask="url(#path-6-inside-3_3778_7005)"/>
<mask id="path-8-inside-4_3778_7005" fill="white">
<path d="M5.44922 15.8652H23.7381C23.9107 15.8652 24.0506 15.7253 24.0506 15.5527C24.0506 15.3802 23.9107 15.2402 23.7381 15.2402H5.44922C5.27664 15.2402 5.13672 15.3802 5.13672 15.5527C5.13672 15.7253 5.27664 15.8652 5.44922 15.8652Z"/>
</mask>
<path d="M5.44922 15.8652H23.7381C23.9107 15.8652 24.0506 15.7253 24.0506 15.5527C24.0506 15.3802 23.9107 15.2402 23.7381 15.2402H5.44922C5.27664 15.2402 5.13672 15.3802 5.13672 15.5527C5.13672 15.7253 5.27664 15.8652 5.44922 15.8652Z" fill="#212325"/>
<path d="M5.44922 20.8652H23.7381V10.8652H5.44922V20.8652ZM23.7381 20.8652C26.6721 20.8652 29.0506 18.4867 29.0506 15.5527H19.0506C19.0506 12.9639 21.1493 10.8652 23.7381 10.8652V20.8652ZM29.0506 15.5527C29.0506 12.6187 26.6721 10.2402 23.7381 10.2402V20.2402C21.1493 20.2402 19.0506 18.1416 19.0506 15.5527H29.0506ZM23.7381 10.2402H5.44922V20.2402H23.7381V10.2402ZM5.44922 10.2402C2.51522 10.2402 0.136719 12.6187 0.136719 15.5527H10.1367C10.1367 18.1416 8.03806 20.2402 5.44922 20.2402V10.2402ZM0.136719 15.5527C0.136719 18.4867 2.51522 20.8652 5.44922 20.8652V10.8652C8.03806 10.8652 10.1367 12.9639 10.1367 15.5527H0.136719Z" fill="white" mask="url(#path-8-inside-4_3778_7005)"/>
<mask id="path-10-inside-5_3778_7005" fill="white">
<path d="M24.0506 18.0645C24.0506 17.8919 23.9107 17.752 23.7381 17.752H5.44922C5.27664 17.752 5.13672 17.8919 5.13672 18.0645C5.13672 18.237 5.27664 18.377 5.44922 18.377H23.7381C23.9107 18.377 24.0506 18.237 24.0506 18.0645Z"/>
</mask>
<path d="M24.0506 18.0645C24.0506 17.8919 23.9107 17.752 23.7381 17.752H5.44922C5.27664 17.752 5.13672 17.8919 5.13672 18.0645C5.13672 18.237 5.27664 18.377 5.44922 18.377H23.7381C23.9107 18.377 24.0506 18.237 24.0506 18.0645Z" fill="#212325"/>
<path d="M29.0506 18.0645C29.0506 15.1305 26.6721 12.752 23.7381 12.752V22.752C21.1493 22.752 19.0506 20.6533 19.0506 18.0645H29.0506ZM23.7381 12.752H5.44922V22.752H23.7381V12.752ZM5.44922 12.752C2.51522 12.752 0.136719 15.1305 0.136719 18.0645H10.1367C10.1367 20.6533 8.03806 22.752 5.44922 22.752V12.752ZM0.136719 18.0645C0.136719 20.9985 2.51522 23.377 5.44922 23.377V13.377C8.03806 13.377 10.1367 15.4756 10.1367 18.0645H0.136719ZM5.44922 23.377H23.7381V13.377H5.44922V23.377ZM23.7381 23.377C26.6721 23.377 29.0506 20.9985 29.0506 18.0645H19.0506C19.0506 15.4756 21.1493 13.377 23.7381 13.377V23.377Z" fill="white" mask="url(#path-10-inside-5_3778_7005)"/>
<mask id="path-12-inside-6_3778_7005" fill="white">
<path d="M19.2592 28.0444L21.0272 26.2764C21.3105 26.5138 21.6599 26.6334 22.0097 26.6334C22.4019 26.6334 22.7941 26.4841 23.0927 26.1855C23.69 25.5883 23.69 24.6166 23.0927 24.0193L19.4666 20.3932C18.8694 19.796 17.8977 19.796 17.3004 20.3932C16.7356 20.9581 16.7058 21.8577 17.2095 22.4588L11.3045 28.3639C10.7033 27.8602 9.80389 27.8899 9.23896 28.4548C8.6417 29.052 8.6417 30.0238 9.23896 30.621L12.8651 34.2471C13.1637 34.5457 13.5559 34.695 13.9481 34.695C14.3403 34.695 14.7326 34.5457 15.0312 34.2471C15.596 33.6822 15.6258 32.7827 15.1221 32.1815L16.8901 30.4135L24.6049 38.1284C24.9315 38.4549 25.3604 38.6182 25.7894 38.6182C26.2183 38.6182 26.6473 38.4549 26.974 38.1283C27.6271 37.4752 27.6271 36.4123 26.974 35.7592L19.2592 28.0444ZM14.6851 31.7346L11.7513 28.8009L17.6466 22.9055L20.5804 25.8393L14.6851 31.7346ZM17.7424 20.8352C17.9192 20.6584 18.1514 20.57 18.3836 20.57C18.6158 20.57 18.8479 20.6584 19.0247 20.8352L22.6508 24.4613C23.0044 24.8148 23.0044 25.39 22.6508 25.7436C22.2973 26.0972 21.722 26.0971 21.3685 25.7436L17.7424 22.1174C17.3888 21.7639 17.3888 21.1887 17.7424 20.8352ZM14.5893 33.8051C14.2358 34.1586 13.6604 34.1586 13.3069 33.8051L9.68084 30.179C9.32732 29.8255 9.32732 29.2502 9.68084 28.8966C9.85764 28.7198 10.0898 28.6315 10.322 28.6315C10.5542 28.6315 10.7864 28.7198 10.9632 28.8966L14.5893 32.5227C14.9429 32.8762 14.9429 33.4515 14.5893 33.8051ZM26.5322 37.6863C26.1226 38.0959 25.4563 38.0958 25.0469 37.6863L17.332 29.9716L18.8172 28.4863L26.5321 36.2012C26.9416 36.6105 26.9415 37.2769 26.5322 37.6863Z"/>
</mask>
<path d="M19.2592 28.0444L21.0272 26.2764C21.3105 26.5138 21.6599 26.6334 22.0097 26.6334C22.4019 26.6334 22.7941 26.4841 23.0927 26.1855C23.69 25.5883 23.69 24.6166 23.0927 24.0193L19.4666 20.3932C18.8694 19.796 17.8977 19.796 17.3004 20.3932C16.7356 20.9581 16.7058 21.8577 17.2095 22.4588L11.3045 28.3639C10.7033 27.8602 9.80389 27.8899 9.23896 28.4548C8.6417 29.052 8.6417 30.0238 9.23896 30.621L12.8651 34.2471C13.1637 34.5457 13.5559 34.695 13.9481 34.695C14.3403 34.695 14.7326 34.5457 15.0312 34.2471C15.596 33.6822 15.6258 32.7827 15.1221 32.1815L16.8901 30.4135L24.6049 38.1284C24.9315 38.4549 25.3604 38.6182 25.7894 38.6182C26.2183 38.6182 26.6473 38.4549 26.974 38.1283C27.6271 37.4752 27.6271 36.4123 26.974 35.7592L19.2592 28.0444ZM14.6851 31.7346L11.7513 28.8009L17.6466 22.9055L20.5804 25.8393L14.6851 31.7346ZM17.7424 20.8352C17.9192 20.6584 18.1514 20.57 18.3836 20.57C18.6158 20.57 18.8479 20.6584 19.0247 20.8352L22.6508 24.4613C23.0044 24.8148 23.0044 25.39 22.6508 25.7436C22.2973 26.0972 21.722 26.0971 21.3685 25.7436L17.7424 22.1174C17.3888 21.7639 17.3888 21.1887 17.7424 20.8352ZM14.5893 33.8051C14.2358 34.1586 13.6604 34.1586 13.3069 33.8051L9.68084 30.179C9.32732 29.8255 9.32732 29.2502 9.68084 28.8966C9.85764 28.7198 10.0898 28.6315 10.322 28.6315C10.5542 28.6315 10.7864 28.7198 10.9632 28.8966L14.5893 32.5227C14.9429 32.8762 14.9429 33.4515 14.5893 33.8051ZM26.5322 37.6863C26.1226 38.0959 25.4563 38.0958 25.0469 37.6863L17.332 29.9716L18.8172 28.4863L26.5321 36.2012C26.9416 36.6105 26.9415 37.2769 26.5322 37.6863Z" fill="#212325"/>
<path d="M19.2592 28.0444L15.7237 24.5088L12.1882 28.0444L15.7236 31.5799L19.2592 28.0444ZM21.0272 26.2764L24.2384 22.4439L20.729 19.5035L17.4916 22.7409L21.0272 26.2764ZM23.0927 24.0193L19.5572 27.5548L23.0927 24.0193ZM19.4666 20.3932L23.0022 16.8577L23.0019 16.8574L19.4666 20.3932ZM17.3004 20.3932L13.7651 16.8574L13.7647 16.8579L17.3004 20.3932ZM17.2095 22.4588L20.7451 25.9943L23.9825 22.7568L21.0419 19.2475L17.2095 22.4588ZM11.3045 28.3639L8.09317 32.1963L11.6026 35.137L14.8401 31.8994L11.3045 28.3639ZM9.23896 28.4548L5.70368 24.919L5.70343 24.9192L9.23896 28.4548ZM9.23896 30.621L5.70343 34.1565L5.70343 34.1566L9.23896 30.621ZM12.8651 34.2471L16.4006 30.7116L16.4006 30.7116L12.8651 34.2471ZM15.0312 34.2471L18.5667 37.7826L18.5669 37.7824L15.0312 34.2471ZM15.1221 32.1815L11.5866 28.646L8.34904 31.8835L11.2897 35.3928L15.1221 32.1815ZM16.8901 30.4135L20.4256 26.878L16.8901 23.3424L13.3545 26.878L16.8901 30.4135ZM26.974 35.7592L23.4384 39.2947L23.4384 39.2948L26.974 35.7592ZM14.6851 31.7346L11.1495 35.2701L14.6851 38.8057L18.2206 35.2701L14.6851 31.7346ZM11.7513 28.8009L8.21577 25.2653L4.68024 28.8009L8.21577 32.3364L11.7513 28.8009ZM17.6466 22.9055L21.1822 19.37L17.6466 15.8345L14.1111 19.37L17.6466 22.9055ZM20.5804 25.8393L24.1159 29.3748L27.6514 25.8393L24.1159 22.3038L20.5804 25.8393ZM17.7424 20.8352L21.2775 24.3711L21.2779 24.3707L17.7424 20.8352ZM19.0247 20.8352L22.5603 17.2996L19.0247 20.8352ZM22.6508 24.4613L19.1153 27.9968L22.6508 24.4613ZM21.3685 25.7436L17.8329 29.2791L17.833 29.2791L21.3685 25.7436ZM17.7424 22.1174L21.278 18.5819L21.2775 18.5815L17.7424 22.1174ZM13.3069 33.8051L9.7714 37.3406L13.3069 33.8051ZM9.68084 30.179L13.2164 26.6434L9.68084 30.179ZM9.68084 28.8966L6.14531 25.3611L6.14492 25.3615L9.68084 28.8966ZM14.5893 32.5227L11.0537 36.0583L11.0541 36.0587L14.5893 32.5227ZM26.5322 37.6863L30.0677 41.2219L30.068 41.2215L26.5322 37.6863ZM25.0469 37.6863L28.5824 34.1508L28.5824 34.1508L25.0469 37.6863ZM17.332 29.9716L13.7965 26.436L10.2609 29.9716L13.7965 33.5071L17.332 29.9716ZM18.8172 28.4863L22.3528 24.9508L18.8172 21.4153L15.2817 24.9508L18.8172 28.4863ZM26.5321 36.2012L22.9966 39.7367L22.9972 39.7374L26.5321 36.2012ZM22.7947 31.5799L24.5627 29.8119L17.4916 22.7409L15.7237 24.5088L22.7947 31.5799ZM17.816 30.1089C19.0266 31.1233 20.5216 31.6334 22.0097 31.6334V21.6334C22.7982 21.6334 23.5944 21.9043 24.2384 22.4439L17.816 30.1089ZM22.0097 31.6334C23.6693 31.6334 25.3513 30.9981 26.6282 29.7211L19.5572 22.65C20.237 21.9702 21.1345 21.6334 22.0097 21.6334V31.6334ZM26.6282 29.7211C29.1781 27.1712 29.1781 23.0336 26.6282 20.4838L19.5572 27.5548C18.2018 26.1995 18.2018 24.0054 19.5572 22.65L26.6282 29.7211ZM26.6282 20.4838L23.0022 16.8577L15.9311 23.9287L19.5572 27.5548L26.6282 20.4838ZM23.0019 16.8574C20.4521 14.3079 16.315 14.3079 13.7651 16.8574L20.8358 23.929C19.4804 25.2841 17.2866 25.2841 15.9313 23.929L23.0019 16.8574ZM13.7647 16.8579C11.3472 19.2757 11.2279 23.1054 13.3771 25.6702L21.0419 19.2475C22.1836 20.6099 22.124 22.6405 20.8362 23.9285L13.7647 16.8579ZM13.674 18.9233L7.76895 24.8284L14.8401 31.8994L20.7451 25.9943L13.674 18.9233ZM14.5159 24.5315C11.9514 22.3826 8.12181 22.5012 5.70368 24.919L12.7743 31.9905C11.486 33.2787 9.45527 33.3377 8.09317 32.1963L14.5159 24.5315ZM5.70343 24.9192C3.15354 27.4691 3.15354 31.6067 5.70343 34.1565L12.7745 27.0855C14.1299 28.4408 14.1299 30.6349 12.7745 31.9903L5.70343 24.9192ZM5.70343 34.1566L9.32953 37.7826L16.4006 30.7116L12.7745 27.0855L5.70343 34.1566ZM9.32952 37.7826C10.6066 39.0597 12.2887 39.695 13.9481 39.695V29.695C14.8232 29.695 15.7207 30.0317 16.4006 30.7116L9.32952 37.7826ZM13.9481 39.695C15.6076 39.695 17.2896 39.0597 18.5667 37.7826L11.4956 30.7116C12.1755 30.0317 13.073 29.695 13.9481 29.695V39.695ZM18.5669 37.7824C20.9844 35.3646 21.1037 31.5349 18.9545 28.9701L11.2897 35.3928C10.148 34.0304 10.2076 31.9998 11.4954 30.7118L18.5669 37.7824ZM18.6576 35.717L20.4256 33.949L13.3545 26.878L11.5866 28.646L18.6576 35.717ZM13.3545 33.949L21.0694 41.6639L28.1404 34.5928L20.4256 26.878L13.3545 33.949ZM21.0694 41.6639C22.3744 42.9689 24.0932 43.6182 25.7894 43.6182V33.6182C26.6277 33.6182 27.4885 33.9409 28.1404 34.5928L21.0694 41.6639ZM25.7894 43.6182C27.4859 43.6182 29.2046 42.9687 30.5095 41.6638L23.4384 34.5927C24.0901 33.9411 24.9508 33.6182 25.7894 33.6182V43.6182ZM30.5095 41.6638C33.1152 39.0581 33.1152 34.8294 30.5095 32.2237L23.4384 39.2948C22.1389 37.9953 22.1389 35.8922 23.4384 34.5927L30.5095 41.6638ZM30.5095 32.2237L22.7948 24.5089L15.7236 31.5799L23.4384 39.2947L30.5095 32.2237ZM18.2206 28.1991L15.2868 25.2653L8.21577 32.3364L11.1495 35.2701L18.2206 28.1991ZM15.2868 32.3364L21.1822 26.4411L14.1111 19.37L8.21577 25.2653L15.2868 32.3364ZM14.1111 26.4411L17.0448 29.3748L24.1159 22.3038L21.1822 19.37L14.1111 26.4411ZM17.0448 22.3038L11.1495 28.1991L18.2206 35.2701L24.1159 29.3748L17.0448 22.3038ZM21.2779 24.3707C20.4762 25.1724 19.4186 25.57 18.3836 25.57V15.57C16.8842 15.57 15.3622 16.1443 14.2069 17.2996L21.2779 24.3707ZM18.3836 25.57C17.3485 25.57 16.2909 25.1724 15.4892 24.3707L22.5603 17.2996C21.405 16.1443 19.883 15.57 18.3836 15.57V25.57ZM15.4892 24.3707L19.1153 27.9968L26.1864 20.9257L22.5603 17.2996L15.4892 24.3707ZM19.1153 27.9968C17.516 26.3975 17.5165 23.8072 19.1149 22.2085L26.1868 29.2787C28.4922 26.9728 28.4927 23.2321 26.1864 20.9257L19.1153 27.9968ZM19.1149 22.2085C20.7146 20.6084 23.3054 20.6095 24.904 22.2081L17.833 29.2791C20.1386 31.5848 23.88 31.586 26.1868 29.2787L19.1149 22.2085ZM24.9041 22.2081L21.278 18.5819L14.2068 25.6529L17.8329 29.2791L24.9041 22.2081ZM21.2775 18.5815C22.8771 20.1807 22.8771 22.7719 21.2775 24.3711L14.2073 17.2992C11.9005 19.6055 11.9005 23.3471 14.2073 25.6533L21.2775 18.5815ZM11.0537 30.2695C12.6528 28.6704 15.2434 28.6704 16.8425 30.2695L9.7714 37.3406C12.0775 39.6467 15.8187 39.6467 18.1248 37.3406L11.0537 30.2695ZM16.8425 30.2695L13.2164 26.6434L6.14531 33.7145L9.7714 37.3406L16.8425 30.2695ZM13.2164 26.6434C14.8157 28.2428 14.8151 30.8331 13.2168 32.4318L6.14492 25.3615C3.83952 27.6674 3.83895 31.4082 6.14531 33.7145L13.2164 26.6434ZM13.2164 32.4322C12.4146 33.2339 11.357 33.6315 10.322 33.6315V23.6315C8.82265 23.6315 7.30063 24.2058 6.14531 25.3611L13.2164 32.4322ZM10.322 33.6315C9.28702 33.6315 8.22938 33.2339 7.42765 32.4322L14.4987 25.3611C13.3434 24.2058 11.8214 23.6315 10.322 23.6315V33.6315ZM7.42765 32.4322L11.0537 36.0583L18.1248 28.9872L14.4987 25.3611L7.42765 32.4322ZM11.0541 36.0587C9.45437 34.4592 9.45493 31.8684 11.0537 30.2695L18.1248 37.3406C20.4308 35.0346 20.4314 31.2933 18.1244 28.9868L11.0541 36.0587ZM22.9966 34.1508C24.54 32.6075 27.0395 32.6079 28.5824 34.1508L21.5113 41.2219C23.8732 43.5837 27.7053 43.5843 30.0677 41.2219L22.9966 34.1508ZM28.5824 34.1508L20.8675 26.436L13.7965 33.5071L21.5113 41.2219L28.5824 34.1508ZM20.8675 33.5071L22.3528 32.0219L15.2817 24.9508L13.7965 26.436L20.8675 33.5071ZM15.2817 32.0219L22.9966 39.7367L30.0676 32.6656L22.3528 24.9508L15.2817 32.0219ZM22.9972 39.7374C21.4527 38.1934 21.4541 35.6937 22.9963 34.1511L30.068 41.2215C32.429 38.8601 32.4306 35.0277 30.0669 32.665L22.9972 39.7374Z" fill="white" mask="url(#path-12-inside-6_3778_7005)"/>
</svg>
